HIERARCHY
ROOT Hips
{
 OFFSET 0.000000 0.000000 0.000000
 CHANNELS 6 Xposition Yposition Zposition Yrotation Xrotation Zrotation
 JOINT Chest
 {
  OFFSET 0.000000 9.910571 -0.011835
  CHANNELS 3 Yrotation Xrotation Zrotation
  JOINT Chest2
  {
   OFFSET 0.000000 10.789473 0.021497
   CHANNELS 3 Yrotation Xrotation Zrotation
   JOINT Chest3
   {
    OFFSET 0.000000 9.748205 0.000000
    CHANNELS 3 Yrotation Xrotation Zrotation
    JOINT Chest4
    {
     OFFSET 0.000000 9.748205 0.000000
     CHANNELS 3 Yrotation Xrotation Zrotation
     JOINT Neck
     {
      OFFSET 0.000000 13.998479 0.000000
      CHANNELS 3 Yrotation Xrotation Zrotation
      JOINT Head
      {
       OFFSET 0.000000 9.082285 0.051121
       CHANNELS 3 Yrotation Xrotation Zrotation
       End Site
       {
        OFFSET 0.000000 17.246134 0.026702
       }
      }
     }
     JOINT RightCollar
     {
      OFFSET -3.284495 7.824262 0.000000
      CHANNELS 3 Yrotation Xrotation Zrotation
      JOINT RightShoulder
      {
       OFFSET -15.534540 0.000000 0.000000
       CHANNELS 3 Yrotation Xrotation Zrotation
       JOINT RightElbow
       {
        OFFSET 0.000000 -28.251216 0.000000
        CHANNELS 3 Yrotation Xrotation Zrotation
        JOINT RightWrist
        {
         OFFSET 0.000000 -23.418114 0.012537
         CHANNELS 3 Yrotation Xrotation Zrotation
         End Site
         {
          OFFSET 0.000000 -17.723959 0.000000
         }
        }
       }
      }
     }
     JOINT LeftCollar
     {
      OFFSET 3.284495 7.824262 0.000000
      CHANNELS 3 Yrotation Xrotation Zrotation
      JOINT LeftShoulder
      {
       OFFSET 15.534540 0.000000 0.000000
       CHANNELS 3 Yrotation Xrotation Zrotation
       JOINT LeftElbow
       {
        OFFSET 0.000000 -28.251216 0.000000
        CHANNELS 3 Yrotation Xrotation Zrotation
        JOINT LeftWrist
        {
         OFFSET 0.000000 -23.418114 0.012537
         CHANNELS 3 Yrotation Xrotation Zrotation
         End Site
         {
          OFFSET 0.000000 -17.723959 0.000000
         }
        }
       }
      }
     }
    }
   }
  }
 }
 JOINT RightHip
 {
  OFFSET -8.142657 0.057990 0.005917
  CHANNELS 3 Yrotation Xrotation Zrotation
  JOINT RightKnee
  {
   OFFSET 0.000000 -49.716894 0.008478
   CHANNELS 3 Yrotation Xrotation Zrotation
   JOINT RightAnkle
   {
    OFFSET 0.000000 -43.994153 0.004166
    CHANNELS 3 Yrotation Xrotation Zrotation
    JOINT RightToe
    {
     OFFSET 0.000000 -7.619154 17.822051
     CHANNELS 3 Yrotation Xrotation Zrotation
     End Site
     {
      OFFSET 0.000000 -1.595627 7.159905
     }
    }
   }
  }
 }
 JOINT LeftHip
 {
  OFFSET 8.142657 0.057990 0.005917
  CHANNELS 3 Yrotation Xrotation Zrotation
  JOINT LeftKnee
  {
   OFFSET 0.000000 -49.716894 0.008478
   CHANNELS 3 Yrotation Xrotation Zrotation
   JOINT LeftAnkle
   {
    OFFSET 0.000000 -43.994153 0.004166
    CHANNELS 3 Yrotation Xrotation Zrotation
    JOINT LeftToe
    {
     OFFSET 0.000000 -7.619154 17.822051
     CHANNELS 3 Yrotation Xrotation Zrotation
     End Site
     {
      OFFSET 0.000000 -1.595627 7.159905
     }
    }
   }
  }
 }
}
MOTION
Frames: 5
Frame Time: 0.008333
496.485764 57.079403 373.966453 -55.720854 -55.226230 4.268781 -1.314826 22.020170 -2.988141 -0.424702 9.790746 -1.247735 -0.424702 9.790746 -1.247735 -0.297584 7.343963 -0.926646 -5.535854 15.990941 -1.645306 -9.707785 -6.424178 -1.053109 -0.604868 9.548824 12.531922 26.131596 -15.555247 -23.228499 -13.287635 -45.342465 39.327344 10.851333 -8.825408 -13.821726 -2.169481 13.130681 -11.095960 -9.792117 -19.997404 20.450508 29.571131 -67.566665 -23.102064 -34.473777 13.703090 -17.376630 -13.425499 -30.993509 1.393141 -31.218319 71.050180 -44.350388 0.480896 10.006457 -1.120110 0.000020 0.025668 0.008945 13.329206 -30.211299 10.433379 25.992126 71.411322 16.819670 6.372272 9.123570 7.527717 0.000613 -0.007381 -0.006732
496.488522 57.082363 373.969309 -55.718160 -55.230108 4.276756 -1.314723 22.016755 -2.993781 -0.422790 9.790592 -1.248208 -0.422790 9.790592 -1.248208 -0.296147 7.343845 -0.927031 -5.537438 16.005457 -1.648183 -9.709159 -6.397389 -1.058834 -0.610309 9.561203 12.535267 26.135316 -15.560395 -23.226041 -13.275430 -45.346377 39.314966 10.846560 -8.823709 -13.821076 -2.179656 13.143064 -11.086272 -9.793333 -20.004957 20.443119 29.568818 -67.562923 -23.080223 -34.473538 13.691051 -17.382880 -13.410922 -30.990034 1.377586 -31.232654 71.041949 -44.360989 0.483050 10.012083 -1.121495 0.000851 0.023982 0.011850 13.330575 -30.204281 10.432847 25.976461 71.418331 16.801582 6.197330 9.180096 7.506795 -0.009276 -0.025697 -0.010913
496.493133 57.085670 373.973210 -55.711935 -55.235860 4.280914 -1.318511 22.016150 -2.998451 -0.423452 9.790810 -1.248149 -0.423452 9.790810 -1.248149 -0.296642 7.344009 -0.926976 -5.534143 16.017645 -1.650774 -9.701643 -6.375106 -1.065631 -0.613398 9.562764 12.533032 26.144784 -15.565842 -23.225992 -13.266650 -45.340974 39.302906 10.842259 -8.829720 -13.819810 -2.187734 13.146266 -11.082128 -9.782940 -20.010808 20.436656 29.530136 -67.512289 -23.036383 -34.472376 13.643455 -17.360427 -13.399125 -30.986108 1.363324 -31.243373 71.039038 -44.367489 0.470362 10.017022 -1.127892 0.004552 0.021699 0.016077 13.340299 -30.192700 10.426042 25.968601 71.418289 16.797364 6.043292 9.224226 7.486548 -0.016776 -0.034967 -0.010772
496.494506 57.090161 373.978016 -55.706655 -55.242518 4.279898 -1.316523 22.020366 -2.999885 -0.422021 9.792060 -1.247589 -0.422021 9.792060 -1.247589 -0.295578 7.344943 -0.926579 -5.531892 16.028101 -1.652329 -9.696511 -6.355920 -1.070012 -0.621635 9.561291 12.539457 26.142263 -15.567029 -23.229573 -13.263348 -45.343484 39.305956 10.841349 -8.825016 -13.822355 -2.196561 13.143076 -11.071807 -9.786405 -20.007138 20.429152 29.540786 -67.508738 -23.025182 -34.476606 13.627952 -17.367018 -13.390654 -30.976264 1.347925 -31.272866 71.025771 -44.393558 0.479758 10.016836 -1.124018 -0.003072 0.022606 0.014446 13.340597 -30.181192 10.424784 25.968400 71.416893 16.790912 6.069869 9.215048 7.489678 -0.013937 -0.031592 -0.003880
496.498039 57.092826 373.982662 -55.695595 -55.244059 4.271268 -1.318110 22.018133 -3.000454 -0.422694 9.791510 -1.247496 -0.422694 9.791510 -1.247496 -0.296084 7.344532 -0.926499 -5.526862 16.038818 -1.653344 -9.686397 -6.336333 -1.074404 -0.622877 9.554531 12.542893 26.142658 -15.560892 -23.223726 -13.252825 -45.348315 39.297844 10.839988 -8.817536 -13.827691 -2.197359 13.146833 -11.061454 -9.785810 -20.015353 20.421657 29.476291 -67.454676 -22.953872 -34.473179 13.571421 -17.340862 -13.387711 -30.973242 1.341142 -31.269766 71.025565 -44.384804 0.471131 10.017105 -1.128403 0.000156 0.023575 0.015799 13.341911 -30.176548 10.423272 25.967326 71.413858 16.789536 6.027663 9.226592 7.485634 -0.015688 -0.031814 -0.002026
